<svg id="Layer_1" data-name="Layer 1" xmlns="http://www.w3.org/2000/svg" viewBox="0 0 370.66 370.66"><defs><style>.cls-1{fill:#ec1c24}.cls-2{fill:#fff}.cls-3,.cls-4{fill:none;stroke:#fff;stroke-miterlimit:10}.cls-3{stroke-width:2px}</style></defs><title>tomato2</title><circle class="cls-1" cx="185.33" cy="185.33" r="185.3" transform="rotate(-30 185.324 185.318)"/><path class="cls-2" d="M189.53 21.49a6.72 6.72 0 0 1-.88 3.83 3.66 3.66 0 0 1-5.49 0 6.37 6.37 0 0 1-.92-3.66v-2a6.57 6.57 0 0 1 .88-3.79 3.73 3.73 0 0 1 5.27-.24l.24.24a6.34 6.34 0 0 1 .9 3.69v1.93zm-1.47-2a5.37 5.37 0 0 0-.52-2.72 1.8 1.8 0 0 0-1.66-.85 1.78 1.78 0 0 0-1.64.85 5.25 5.25 0 0 0-.53 2.61v2.31a5.47 5.47 0 0 0 .54 2.77 1.8 1.8 0 0 0 1.65.89 1.78 1.78 0 0 0 1.62-.84 5.26 5.26 0 0 0 .55-2.65v-2.37zm76.36 21.3l3.33-4.72L272.9 39l-.67 1.18-4.07-2.29-1.85 2.57a3.72 3.72 0 0 1 1.92.51 3.18 3.18 0 0 1 1.67 2.14 4.08 4.08 0 0 1-.58 2.91 3.93 3.93 0 0 1-2.22 2 3.5 3.5 0 0 1-2.78-.5 3.65 3.65 0 0 1-1.76-2 3.39 3.39 0 0 1 .19-2.58l1.25.65a2.33 2.33 0 0 0-.12 1.65 2.19 2.19 0 0 0 1.07 1.25 2 2 0 0 0 1.74.18 2.92 2.92 0 0 0 1.45-1.39 2.68 2.68 0 0 0 .36-1.93 2.14 2.14 0 0 0-1.12-1.43 2.42 2.42 0 0 0-1.52-.37l-.49.09z"/><path class="cls-3" d="M185.36 31.88v15.99M96.48 60.25l9.25 13.03m-59.32 46.96l14.47 6.78M32.37 197.1l15.94-1.23M58 270.91l13.27-8.92m45.39 60.54l7.15-14.29m69.32 30.33l-.81-15.96m75.26-7.73l-8.56-13.49m61.7-43.79l-14.1-7.53m32.14-68.49l-15.98.39m-5.75-75.44l-13.72 8.2m-42.16-62.82l-7.89 13.89"/><path class="cls-4" d="M169.59 32.7l1.14 11.04m-16.75-8.61l2.27 10.86m-17.54-6.84l3.38 10.57m-18.16-5l4.45 10.17m-18.58-3.11l5.47 9.66"/><path class="cls-2" d="M84.08 55.23l-2.86-5.06 4.85-3.43.79 1.11L83 50.56l1.54 2.79a3.75 3.75 0 0 1 1.29-1.53 3.2 3.2 0 0 1 2.66-.6A4.12 4.12 0 0 1 90.92 53a4 4 0 0 1 .84 2.87 3.53 3.53 0 0 1-1.61 2.4 3.66 3.66 0 0 1-2.54.75 3.4 3.4 0 0 1-2.27-1.29l1.14-.81a2.34 2.34 0 0 0 1.45.82 2.21 2.21 0 0 0 1.49-.45 2 2 0 0 0 .91-1.5 2.93 2.93 0 0 0-.64-1.92 2.69 2.69 0 0 0-1.6-1.16 2.15 2.15 0 0 0-1.78.4 2.43 2.43 0 0 0-1 1.22l-.13.49zm6.67-4.74l-2.86-5 4.85-3.43.79 1.11-3.83 2.71 1.54 2.79a3.74 3.74 0 0 1 1.29-1.53 3.2 3.2 0 0 1 2.66-.6 4.11 4.11 0 0 1 2.4 1.77 4 4 0 0 1 .83 2.83 3.53 3.53 0 0 1-1.61 2.4 3.66 3.66 0 0 1-2.54.75A3.4 3.4 0 0 1 92 53l1.14-.81a2.34 2.34 0 0 0 1.45.82 2.2 2.2 0 0 0 1.53-.46A2 2 0 0 0 97 51a2.94 2.94 0 0 0-.61-1.91A2.69 2.69 0 0 0 94.82 48a2.15 2.15 0 0 0-1.78.4 2.43 2.43 0 0 0-1 1.22l-.13.49z"/><path class="cls-4" d="M84.09 70.05l7.33 8.34m-18.64 2.68l8.14 7.54M62.66 93.2l8.87 6.66m-17.69 6.44l9.51 5.72"/><path class="cls-2" d="M33.15 122l-5-3 2.51-5.36 1.23.58-2 4.23 2.71 1.65a3.73 3.73 0 0 1 .37-2 3.18 3.18 0 0 1 2-1.83 4.09 4.09 0 0 1 3 .36 4 4 0 0 1 2.14 2.07 3.51 3.51 0 0 1-.21 2.88 3.65 3.65 0 0 1-1.83 1.9 3.39 3.39 0 0 1-2.6 0l.53-1.28a2.34 2.34 0 0 0 1.65 0 2.19 2.19 0 0 0 1.1-1.15 2 2 0 0 0 0-1.75 2.92 2.92 0 0 0-1.5-1.35 2.68 2.68 0 0 0-2-.22 2.15 2.15 0 0 0-1.35 1.22 2.41 2.41 0 0 0-.26 1.54l.13.51zm7.02-13a6.71 6.71 0 0 1 3.1 2.46 3.66 3.66 0 0 1-2.3 5 6.36 6.36 0 0 1-3.71-.72l-1.78-.83a6.56 6.56 0 0 1-3.06-2.45 3.74 3.74 0 0 1 2.3-5 6.34 6.34 0 0 1 3.72.74zm-2.44.46a5.37 5.37 0 0 0-2.68-.68 1.8 1.8 0 0 0-1.48 1.14 1.78 1.78 0 0 0 .07 1.85 5.24 5.24 0 0 0 2.14 1.59l2.13 1a5.47 5.47 0 0 0 2.74.68 1.8 1.8 0 0 0 1.5-1.04 1.77 1.77 0 0 0-.08-1.82 5.27 5.27 0 0 0-2.17-1.65z"/><path class="cls-4" d="M40.46 134.86l10.48 3.65m-14.9 11.52l10.8 2.55M33.2 165.56l11.01 1.43m-12.24 14.32l11.1.29"/><path class="cls-2" d="M23.09 199.49l-.09-1.6 1.2-.09.12 1.6 2.67-.21.11 1.47-2.67.21.4 5.25-.86.07-8.38-4.54-.14-1.57zm.39 5.06L23.2 201l-5.65.43.33.15zM21 197l-5.79-.14-.46-5.86 1.35-.1.32 4.66 3.17.11a3.72 3.72 0 0 1-.65-1.88 3.18 3.18 0 0 1 .85-2.58 4.09 4.09 0 0 1 2.74-1.14 4 4 0 0 1 2.88.75 3.51 3.51 0 0 1 1.23 2.61A3.66 3.66 0 0 1 26 196a3.39 3.39 0 0 1-2.26 1.28l-.11-1.38a2.33 2.33 0 0 0 1.44-.82 2.2 2.2 0 0 0 .39-1.54 2 2 0 0 0-.82-1.55 2.93 2.93 0 0 0-2-.43 2.68 2.68 0 0 0-1.81.77 2.15 2.15 0 0 0-.57 1.73 2.42 2.42 0 0 0 .6 1.45l.35.36z"/><path class="cls-3" d="M32.37 197.1l11.07-.85"/><path class="cls-4" d="M34.39 212.76l10.93-1.98m-7.31 17.35l10.66-3.09m-5.47 18.01l10.28-4.17m-3.6 18.48l9.8-5.21"/><path class="cls-2" d="M51.11 277.49l-.89-1.33 1-.67.89 1.33 2.23-1.5.82 1.22-2.23 1.46 2.93 4.45-.72.48-9.53.17-.87-1.3zm2.83 4.21l-2-3-4.7 3.16h.36zm-8.82-11.21a6.71 6.71 0 0 1 3.67-1.41 3.66 3.66 0 0 1 3.09 4.54 6.37 6.37 0 0 1-2.53 2.8l-1.63 1.07a6.57 6.57 0 0 1-3.63 1.38 3.73 3.73 0 0 1-3.17-4.21q0-.17.06-.34a6.34 6.34 0 0 1 2.55-2.81zm-.85 2.34a5.37 5.37 0 0 0-2 2 1.8 1.8 0 0 0 .22 1.85 1.78 1.78 0 0 0 1.62.89 5.26 5.26 0 0 0 2.46-1l2-1.31a5.47 5.47 0 0 0 2-2 1.8 1.8 0 0 0-.18-1.86 1.78 1.78 0 0 0-1.6-.87 5.26 5.26 0 0 0-2.51 1z"/><path class="cls-4" d="M67.48 283.55l8.52-7.11m2.2 18.7l7.75-7.94m4.1 18.38l6.9-8.7m5.97 17.86l5.96-9.36"/><path class="cls-2" d="M116.42 335.83l-1-.49a2.43 2.43 0 0 0-1.71-.24 1.83 1.83 0 0 0-1.18 1 1.79 1.79 0 0 0 .9 2.72 2.11 2.11 0 0 0 1.6.19 1.9 1.9 0 0 0 1.15-1l1.31.66a3 3 0 0 1-1.92 1.59 3.66 3.66 0 0 1-2.69-.33A3.61 3.61 0 0 1 111 338a3.13 3.13 0 0 1 .25-2.57 2.53 2.53 0 0 1 1.09-1.09A3 3 0 0 1 114 334a2.84 2.84 0 0 1-.87-1.55 2.78 2.78 0 0 1 .3-1.76 3.15 3.15 0 0 1 2-1.75 3.79 3.79 0 0 1 2.77.37 3.91 3.91 0 0 1 2 2 2.92 2.92 0 0 1-.13 2.54l-1.32-.66a1.89 1.89 0 0 0 .12-1.57 2.26 2.26 0 0 0-1.18-1.2 2.22 2.22 0 0 0-1.7-.23 2.14 2.14 0 0 0-1.22 1.17 1.94 1.94 0 0 0-.14 1.66 2.7 2.7 0 0 0 1.35 1.29l1 .49zm-5.65-3.61l-3.1 4.89-5.25-2.62.61-1.21 4.18 2.09 1.72-2.66a3.73 3.73 0 0 1-1.95-.42 3.18 3.18 0 0 1-1.77-2.06 4.09 4.09 0 0 1 .43-2.94 4 4 0 0 1 2.12-2.08 3.51 3.51 0 0 1 2.87.29 3.65 3.65 0 0 1 1.85 1.88 3.39 3.39 0 0 1-.06 2.59l-1.24-.62a2.33 2.33 0 0 0 0-1.65 2.19 2.19 0 0 0-1.13-1.21 2 2 0 0 0-1.75-.1 2.92 2.92 0 0 0-1.38 1.46 2.68 2.68 0 0 0-.27 2 2.15 2.15 0 0 0 1.19 1.38 2.42 2.42 0 0 0 1.54.3l.49-.11z"/><path class="cls-4" d="M131.13 328.86l3.92-10.38m11.12 15.2l2.83-10.74m12.62 13.98l1.72-10.97m13.99 12.61l.58-11.09"/><path class="cls-2" d="M199.49 350.25l-1.1.06a2.42 2.42 0 0 0-1.6.63 1.83 1.83 0 0 0-.52 1.46 1.79 1.79 0 0 0 2.12 1.93 2.11 2.11 0 0 0 1.49-.62 1.91 1.91 0 0 0 .49-1.47l1.46-.07a2.94 2.94 0 0 1-.89 2.33 3.66 3.66 0 0 1-2.5 1 3.62 3.62 0 0 1-2.6-.73 3.13 3.13 0 0 1-1-2.35 2.53 2.53 0 0 1 .41-1.48 3 3 0 0 1 1.27-1.12 2.84 2.84 0 0 1-1.52-.92 2.77 2.77 0 0 1-.61-1.68 3.15 3.15 0 0 1 .89-2.52 3.81 3.81 0 0 1 2.59-1 3.91 3.91 0 0 1 2.69.75 2.92 2.92 0 0 1 1.13 2.27l-1.47.08a1.89 1.89 0 0 0-.67-1.43 2.26 2.26 0 0 0-1.62-.47 2.22 2.22 0 0 0-1.6.64 2.14 2.14 0 0 0-.48 1.62 2 2 0 0 0 .7 1.51 2.7 2.7 0 0 0 1.81.46l1.1-.06zm-13.32-.89a6.72 6.72 0 0 1 .68-3.87 3.66 3.66 0 0 1 5.48-.3 6.37 6.37 0 0 1 1.08 3.6l.1 2a6.56 6.56 0 0 1-.69 3.83 3.72 3.72 0 0 1-5.23.56l-.27-.24a6.33 6.33 0 0 1-1.09-3.63zm1.57 1.93a5.38 5.38 0 0 0 .66 2.69 1.8 1.8 0 0 0 1.7.77 1.78 1.78 0 0 0 1.6-.93 5.25 5.25 0 0 0 .4-2.63l-.1-2.35a5.48 5.48 0 0 0-.68-2.74 1.8 1.8 0 0 0-1.69-.81 1.77 1.77 0 0 0-1.57.92 5.26 5.26 0 0 0-.42 2.67z"/><path class="cls-4" d="M208.84 336.96l-1.7-10.97m17.16 7.76l-2.82-10.74m17.87 5.95l-3.91-10.39m18.39 4.08l-4.95-9.94"/><path class="cls-2" d="M270.81 319.49l6.36-4.09.57.89-1 5.89a9.52 9.52 0 0 0-.15 2 2.73 2.73 0 0 0 .42 1.28 2.07 2.07 0 0 0 1.26 1 1.91 1.91 0 0 0 1.54-.3 2.26 2.26 0 0 0 1.09-1.44 2.38 2.38 0 0 0-.43-1.78l1.23-.79a3.4 3.4 0 0 1 .53 2.72 3.8 3.8 0 0 1-1.78 2.31 3.66 3.66 0 0 1-2.6.67 2.88 2.88 0 0 1-2-1.39q-.92-1.43-.37-4.59l.79-4.49-4.86 3.11zm2.09 5.51l2.62 5.16-5 3.2-.73-1.14 3.93-2.52-1.41-2.83a3.72 3.72 0 0 1-1.35 1.46 3.19 3.19 0 0 1-2.67.48 4.09 4.09 0 0 1-2.3-1.87 3.94 3.94 0 0 1-.71-2.88 3.51 3.51 0 0 1 1.71-2.32 3.64 3.64 0 0 1 2.56-.64 3.38 3.38 0 0 1 2.2 1.38l-1.17.75a2.33 2.33 0 0 0-1.4-.87 2.19 2.19 0 0 0-1.54.39 2 2 0 0 0-1 1.45 2.91 2.91 0 0 0 .55 1.93 2.67 2.67 0 0 0 1.54 1.22 2.14 2.14 0 0 0 1.79-.32 2.42 2.42 0 0 0 1-1.17l.16-.48z"/><path class="cls-4" d="M280.46 305.74l-6.88-8.71m18.76-1.7l-7.74-7.96m18.48-3.62l-8.52-7.12m18.01-5.5l-9.2-6.21"/><path class="cls-2" d="M325.72 260l3.57-6.68.93.5 2 5.62a9.6 9.6 0 0 0 .87 1.85 2.74 2.74 0 0 0 1 .91 2.07 2.07 0 0 0 1.57.21 1.91 1.91 0 0 0 1.2-1 2.27 2.27 0 0 0 .25-1.79 2.38 2.38 0 0 0-1.24-1.35l.69-1.29a3.4 3.4 0 0 1 1.79 2.12 3.81 3.81 0 0 1-.43 2.89 3.66 3.66 0 0 1-1.94 1.85 2.89 2.89 0 0 1-2.42-.23q-1.51-.81-2.56-3.83l-1.5-4.31-2.73 5.12zm.7 9.19a6.71 6.71 0 0 1-3-2.58 3.66 3.66 0 0 1 2.56-4.86 6.37 6.37 0 0 1 3.66.91l1.78.93a6.56 6.56 0 0 1 2.92 2.56 3.73 3.73 0 0 1-2.23 4.78l-.32.1a6.34 6.34 0 0 1-3.68-.94zm2.46-.35a5.37 5.37 0 0 0 2.64.82 1.8 1.8 0 0 0 1.48-1.06 1.78 1.78 0 0 0 0-1.85 5.25 5.25 0 0 0-2-1.7l-2.07-1.11a5.47 5.47 0 0 0-2.7-.82 1.8 1.8 0 0 0-1.56 1 1.77 1.77 0 0 0 0 1.82 5.26 5.26 0 0 0 2.08 1.73z"/><path class="cls-4" d="M327.43 243.3l-10.28-4.19m15.49-10.72l-10.66-3.11m14.3-12.25l-10.91-2.01m12.96-13.65l-11.06-.88"/><path class="cls-2" d="M344.15 178.36v-1.48l9.78-.2-1.14-2.94h1.33l1.66 4.17v.23zm5.85 3.87l5.77.47.12 5.92h-1.36l-.11-4.62-3.16-.29a3.73 3.73 0 0 1 .54 1.92 3.18 3.18 0 0 1-1 2.53 4.09 4.09 0 0 1-2.8 1 4 4 0 0 1-2.83-.91 3.52 3.52 0 0 1-1.08-2.67 3.65 3.65 0 0 1 .8-2.52 3.39 3.39 0 0 1 2.33-1.15v1.39a2.33 2.33 0 0 0-1.48.74 2.2 2.2 0 0 0-.47 1.52 2 2 0 0 0 .73 1.59 2.9 2.9 0 0 0 1.94.54 2.67 2.67 0 0 0 1.85-.67 2.14 2.14 0 0 0 .67-1.69 2.42 2.42 0 0 0-.45-1.5l-.33-.38z"/><path class="cls-4" d="M337.56 165.83l-11.01 1.41m8.2-16.95l-10.81 2.53m6.42-17.7l-10.49 3.63m4.56-18.27l-10.06 4.69"/><path class="cls-2" d="M320.15 101l-.73-1.27 8.41-5-2.44-2 1.15-.68 3.5 2.81.12.2zm9.62 6.58a6.72 6.72 0 0 1-3.75 1.2 3.66 3.66 0 0 1-2.82-4.71 6.36 6.36 0 0 1 2.68-2.66l1.69-1a6.57 6.57 0 0 1 3.71-1.17 3.72 3.72 0 0 1 2.92 4.37q0 .17-.08.34a6.33 6.33 0 0 1-2.7 2.66zm1-2.29a5.38 5.38 0 0 0 2-1.8 1.81 1.81 0 0 0-.11-1.86 1.78 1.78 0 0 0-1.57-1 5.24 5.24 0 0 0-2.52.87l-2 1.2a5.47 5.47 0 0 0-2.1 1.88 1.8 1.8 0 0 0 .07 1.87 1.77 1.77 0 0 0 1.55 1 5.25 5.25 0 0 0 2.56-.88z"/><path class="cls-4" d="M308.23 93.41l-8.89 6.65m-1.21-18.79l-8.16 7.53m-3.13-18.57l-7.35 8.32m-5.02-18.14l-6.45 9.03m-20.98-24.61l-4.46 10.16m-10.31-15.76l-3.39 10.57M217 35.18l-2.29 10.86M201.4 32.73l-1.16 11.03"/></svg>