<svg id="Layer_1" data-name="Layer 1" xmlns="http://www.w3.org/2000/svg" viewBox="0 0 370.66 370.66"><defs><style>.cls-1{fill:#ec1c24;}.cls-2{fill:#fff;}.cls-3,.cls-4{fill:none;stroke:#fff;stroke-miterlimit:10;}.cls-3{stroke-width:2px;}</style></defs><title>tomato2</title><circle class="cls-1" cx="185.33" cy="185.33" r="185.3" transform="translate(-67.83 117.49) rotate(-30)"/><path class="cls-2" d="M189.53,21.49a6.72,6.72,0,0,1-.88,3.83,3.66,3.66,0,0,1-5.49,0,6.37,6.37,0,0,1-.92-3.66v-2a6.57,6.57,0,0,1,.88-3.79,3.73,3.73,0,0,1,5.27-.24l0.24,0.24a6.34,6.34,0,0,1,.9,3.69v1.93h0Zm-1.47-2a5.37,5.37,0,0,0-.52-2.72,1.8,1.8,0,0,0-1.66-.85,1.78,1.78,0,0,0-1.64.85,5.25,5.25,0,0,0-.53,2.61v2.31a5.47,5.47,0,0,0,.54,2.77,1.8,1.8,0,0,0,1.65.89,1.78,1.78,0,0,0,1.62-.84,5.26,5.26,0,0,0,.55-2.65V19.49h0Z" transform="translate(0 0)"/><path class="cls-2" d="M264.42,40.79l3.33-4.72L272.9,39l-0.67,1.18-4.07-2.29-1.85,2.57a3.72,3.72,0,0,1,1.92.51,3.18,3.18,0,0,1,1.67,2.14,4.08,4.08,0,0,1-.58,2.91,3.93,3.93,0,0,1-2.22,2,3.5,3.5,0,0,1-2.78-.5,3.65,3.65,0,0,1-1.76-2,3.39,3.39,0,0,1,.19-2.58L264,43.59a2.33,2.33,0,0,0-.12,1.65,2.19,2.19,0,0,0,1.07,1.25,2,2,0,0,0,1.74.18,2.92,2.92,0,0,0,1.45-1.39,2.68,2.68,0,0,0,.36-1.93,2.14,2.14,0,0,0-1.12-1.43,2.42,2.42,0,0,0-1.52-.37l-0.49.09Z" transform="translate(0 0)"/><line class="cls-3" x1="185.36" y1="31.88" x2="185.36" y2="47.87"/><line class="cls-3" x1="96.48" y1="60.25" x2="105.73" y2="73.28"/><line class="cls-3" x1="46.41" y1="120.24" x2="60.88" y2="127.02"/><line class="cls-3" x1="32.37" y1="197.1" x2="48.31" y2="195.87"/><line class="cls-3" x1="58" y1="270.91" x2="71.27" y2="261.99"/><line class="cls-3" x1="116.66" y1="322.53" x2="123.81" y2="308.24"/><line class="cls-3" x1="193.13" y1="338.57" x2="192.32" y2="322.61"/><line class="cls-3" x1="267.58" y1="314.88" x2="259.02" y2="301.39"/><line class="cls-3" x1="320.72" y1="257.6" x2="306.62" y2="250.07"/><line class="cls-3" x1="338.76" y1="181.58" x2="322.78" y2="181.97"/><line class="cls-3" x1="317.03" y1="106.53" x2="303.31" y2="114.73"/><line class="cls-3" x1="261.15" y1="51.91" x2="253.26" y2="65.8"/><line class="cls-4" x1="169.59" y1="32.7" x2="170.73" y2="43.74"/><line class="cls-4" x1="153.98" y1="35.13" x2="156.25" y2="45.99"/><line class="cls-4" x1="138.71" y1="39.15" x2="142.09" y2="49.72"/><line class="cls-4" x1="123.93" y1="44.72" x2="128.38" y2="54.89"/><line class="cls-4" x1="109.8" y1="51.78" x2="115.27" y2="61.44"/><path class="cls-2" d="M84.08,55.23l-2.86-5.06,4.85-3.43,0.79,1.11L83,50.56l1.54,2.79a3.75,3.75,0,0,1,1.29-1.53,3.2,3.2,0,0,1,2.66-.6A4.12,4.12,0,0,1,90.92,53a4,4,0,0,1,.84,2.87,3.53,3.53,0,0,1-1.61,2.4,3.66,3.66,0,0,1-2.54.75,3.4,3.4,0,0,1-2.27-1.29l1.14-.81a2.34,2.34,0,0,0,1.45.82,2.21,2.21,0,0,0,1.49-.45,2,2,0,0,0,.91-1.5,2.93,2.93,0,0,0-.64-1.92,2.69,2.69,0,0,0-1.6-1.16,2.15,2.15,0,0,0-1.78.4,2.43,2.43,0,0,0-1,1.22l-0.13.49Z" transform="translate(0 0)"/><path class="cls-2" d="M90.75,50.49l-2.86-5,4.85-3.43,0.79,1.11L89.7,45.88l1.54,2.79a3.74,3.74,0,0,1,1.29-1.53,3.2,3.2,0,0,1,2.66-.6,4.11,4.11,0,0,1,2.4,1.77,4,4,0,0,1,.83,2.83,3.53,3.53,0,0,1-1.61,2.4,3.66,3.66,0,0,1-2.54.75A3.4,3.4,0,0,1,92,53l1.14-.81a2.34,2.34,0,0,0,1.45.82,2.2,2.2,0,0,0,1.53-.46A2,2,0,0,0,97,51a2.94,2.94,0,0,0-.61-1.91A2.69,2.69,0,0,0,94.82,48a2.15,2.15,0,0,0-1.78.4,2.43,2.43,0,0,0-1,1.22l-0.13.49Z" transform="translate(0 0)"/><line class="cls-4" x1="84.09" y1="70.05" x2="91.42" y2="78.39"/><line class="cls-4" x1="72.78" y1="81.07" x2="80.92" y2="88.61"/><line class="cls-4" x1="62.66" y1="93.2" x2="71.53" y2="99.86"/><line class="cls-4" x1="53.84" y1="106.3" x2="63.35" y2="112.02"/><path class="cls-2" d="M33.15,122l-5-3,2.51-5.36,1.23,0.58-2,4.23,2.71,1.65a3.73,3.73,0,0,1,.37-2,3.18,3.18,0,0,1,2-1.83,4.09,4.09,0,0,1,3,.36,4,4,0,0,1,2.14,2.07,3.51,3.51,0,0,1-.21,2.88,3.65,3.65,0,0,1-1.83,1.9,3.39,3.39,0,0,1-2.6,0L36,122.2a2.34,2.34,0,0,0,1.65,0,2.19,2.19,0,0,0,1.1-1.15,2,2,0,0,0,0-1.75,2.92,2.92,0,0,0-1.5-1.35,2.68,2.68,0,0,0-2-.22,2.15,2.15,0,0,0-1.35,1.22,2.41,2.41,0,0,0-.26,1.54L33.77,121Z" transform="translate(0 0)"/><path class="cls-2" d="M40.17,109a6.71,6.71,0,0,1,3.1,2.46,3.66,3.66,0,0,1-2.3,5,6.36,6.36,0,0,1-3.71-.72l-1.78-.83a6.56,6.56,0,0,1-3.06-2.45,3.74,3.74,0,0,1,2.3-5,6.34,6.34,0,0,1,3.72.74Zm-2.44.46a5.37,5.37,0,0,0-2.68-.68,1.8,1.8,0,0,0-1.48,1.14,1.78,1.78,0,0,0,.07,1.85,5.24,5.24,0,0,0,2.14,1.59l2.13,1a5.47,5.47,0,0,0,2.74.68A1.8,1.8,0,0,0,42.15,114a1.77,1.77,0,0,0-.08-1.82,5.27,5.27,0,0,0-2.17-1.65Z" transform="translate(0 0)"/><line class="cls-4" x1="40.46" y1="134.86" x2="50.94" y2="138.51"/><line class="cls-4" x1="36.04" y1="150.03" x2="46.84" y2="152.58"/><line class="cls-4" x1="33.2" y1="165.56" x2="44.21" y2="166.99"/><line class="cls-4" x1="31.97" y1="181.31" x2="43.07" y2="181.6"/><path class="cls-2" d="M23.09,199.49L23,197.89l1.2-.09,0.12,1.6,2.67-.21,0.11,1.47-2.67.21,0.4,5.25-0.86.07-8.38-4.54-0.14-1.57Zm0.39,5.06L23.2,201l-5.65.43,0.33,0.15Z" transform="translate(0 0)"/><path class="cls-2" d="M21,197l-5.79-.14L14.75,191l1.35-.1,0.32,4.66,3.17,0.11a3.72,3.72,0,0,1-.65-1.88,3.18,3.18,0,0,1,.85-2.58,4.09,4.09,0,0,1,2.74-1.14,4,4,0,0,1,2.88.75,3.51,3.51,0,0,1,1.23,2.61A3.66,3.66,0,0,1,26,196a3.39,3.39,0,0,1-2.26,1.28l-0.11-1.38a2.33,2.33,0,0,0,1.44-.82,2.2,2.2,0,0,0,.39-1.54,2,2,0,0,0-.82-1.55,2.93,2.93,0,0,0-2-.43,2.68,2.68,0,0,0-1.81.77,2.15,2.15,0,0,0-.57,1.73,2.42,2.42,0,0,0,.6,1.45l0.35,0.36Z" transform="translate(0 0)"/><line class="cls-3" x1="32.37" y1="197.1" x2="43.44" y2="196.25"/><line class="cls-4" x1="34.39" y1="212.76" x2="45.32" y2="210.78"/><line class="cls-4" x1="38.01" y1="228.13" x2="48.67" y2="225.04"/><line class="cls-4" x1="43.2" y1="243.05" x2="53.48" y2="238.88"/><line class="cls-4" x1="49.88" y1="257.36" x2="59.68" y2="252.15"/><path class="cls-2" d="M51.11,277.49l-0.89-1.33,1-.67,0.89,1.33,2.23-1.5,0.82,1.22L52.93,278l2.93,4.45-0.72.48-9.53.17-0.87-1.3Zm2.83,4.21-2-3-4.7,3.16h0.36Z" transform="translate(0 0)"/><path class="cls-2" d="M45.12,270.49a6.71,6.71,0,0,1,3.67-1.41,3.66,3.66,0,0,1,3.09,4.54,6.37,6.37,0,0,1-2.53,2.8l-1.63,1.07a6.57,6.57,0,0,1-3.63,1.38,3.73,3.73,0,0,1-3.17-4.21q0-.17.06-0.34a6.34,6.34,0,0,1,2.55-2.81Zm-0.85,2.34a5.37,5.37,0,0,0-2,2,1.8,1.8,0,0,0,.22,1.85,1.78,1.78,0,0,0,1.62.89,5.26,5.26,0,0,0,2.46-1l2-1.31a5.47,5.47,0,0,0,2-2,1.8,1.8,0,0,0-.18-1.86,1.78,1.78,0,0,0-1.6-.87,5.26,5.26,0,0,0-2.51,1Z" transform="translate(0 0)"/><line class="cls-4" x1="67.48" y1="283.55" x2="76" y2="276.44"/><line class="cls-4" x1="78.2" y1="295.14" x2="85.95" y2="287.2"/><line class="cls-4" x1="90.05" y1="305.58" x2="96.95" y2="296.88"/><line class="cls-4" x1="102.92" y1="314.74" x2="108.88" y2="305.38"/><path class="cls-2" d="M116.42,335.83l-1-.49a2.43,2.43,0,0,0-1.71-.24,1.83,1.83,0,0,0-1.18,1,1.79,1.79,0,0,0,.9,2.72,2.11,2.11,0,0,0,1.6.19,1.9,1.9,0,0,0,1.15-1l1.31,0.66a3,3,0,0,1-1.92,1.59,3.66,3.66,0,0,1-2.69-.33A3.61,3.61,0,0,1,111,338a3.13,3.13,0,0,1,.25-2.57,2.53,2.53,0,0,1,1.09-1.09A3,3,0,0,1,114,334a2.84,2.84,0,0,1-.87-1.55,2.78,2.78,0,0,1,.3-1.76,3.15,3.15,0,0,1,2-1.75,3.79,3.79,0,0,1,2.77.37,3.91,3.91,0,0,1,2,2,2.92,2.92,0,0,1-.13,2.54l-1.32-.66a1.89,1.89,0,0,0,.12-1.57,2.26,2.26,0,0,0-1.18-1.2,2.22,2.22,0,0,0-1.7-.23,2.14,2.14,0,0,0-1.22,1.17,1.94,1.94,0,0,0-.14,1.66,2.7,2.7,0,0,0,1.35,1.29l1,0.49Z" transform="translate(0 0)"/><path class="cls-2" d="M110.77,332.22l-3.1,4.89-5.25-2.62,0.61-1.21,4.18,2.09,1.72-2.66a3.73,3.73,0,0,1-1.95-.42,3.18,3.18,0,0,1-1.77-2.06,4.09,4.09,0,0,1,.43-2.94,4,4,0,0,1,2.12-2.08,3.51,3.51,0,0,1,2.87.29,3.65,3.65,0,0,1,1.85,1.88,3.39,3.39,0,0,1-.06,2.59l-1.24-.62a2.33,2.33,0,0,0,0-1.65,2.19,2.19,0,0,0-1.13-1.21,2,2,0,0,0-1.75-.1,2.92,2.92,0,0,0-1.38,1.46,2.68,2.68,0,0,0-.27,2,2.15,2.15,0,0,0,1.19,1.38,2.42,2.42,0,0,0,1.54.3l0.49-.11Z" transform="translate(0 0)"/><line class="cls-4" x1="131.13" y1="328.86" x2="135.05" y2="318.48"/><line class="cls-4" x1="146.17" y1="333.68" x2="149" y2="322.94"/><line class="cls-4" x1="161.62" y1="336.92" x2="163.34" y2="325.95"/><line class="cls-4" x1="177.33" y1="338.56" x2="177.91" y2="327.47"/><path class="cls-2" d="M199.49,350.25l-1.1.06a2.42,2.42,0,0,0-1.6.63,1.83,1.83,0,0,0-.52,1.46,1.79,1.79,0,0,0,2.12,1.93,2.11,2.11,0,0,0,1.49-.62,1.91,1.91,0,0,0,.49-1.47l1.46-.07a2.94,2.94,0,0,1-.89,2.33,3.66,3.66,0,0,1-2.5,1,3.62,3.62,0,0,1-2.6-.73,3.13,3.13,0,0,1-1-2.35,2.53,2.53,0,0,1,.41-1.48,3,3,0,0,1,1.27-1.12,2.84,2.84,0,0,1-1.52-.92,2.77,2.77,0,0,1-.61-1.68,3.15,3.15,0,0,1,.89-2.52,3.81,3.81,0,0,1,2.59-1,3.91,3.91,0,0,1,2.69.75,2.92,2.92,0,0,1,1.13,2.27l-1.47.08a1.89,1.89,0,0,0-.67-1.43,2.26,2.26,0,0,0-1.62-.47,2.22,2.22,0,0,0-1.6.64,2.14,2.14,0,0,0-.48,1.62,2,2,0,0,0,.7,1.51,2.7,2.7,0,0,0,1.81.46l1.1-.06Z" transform="translate(0 0)"/><path class="cls-2" d="M186.17,349.36a6.72,6.72,0,0,1,.68-3.87,3.66,3.66,0,0,1,5.48-.3,6.37,6.37,0,0,1,1.08,3.6l0.1,2a6.56,6.56,0,0,1-.69,3.83,3.72,3.72,0,0,1-5.23.56l-0.27-.24a6.33,6.33,0,0,1-1.09-3.63Zm1.57,1.93a5.38,5.38,0,0,0,.66,2.69,1.8,1.8,0,0,0,1.7.77,1.78,1.78,0,0,0,1.6-.93,5.25,5.25,0,0,0,.4-2.63L192,348.84a5.48,5.48,0,0,0-.68-2.74,1.8,1.8,0,0,0-1.69-.81,1.77,1.77,0,0,0-1.57.92,5.26,5.26,0,0,0-.42,2.67Z" transform="translate(0 0)"/><line class="cls-4" x1="208.84" y1="336.96" x2="207.14" y2="325.99"/><line class="cls-4" x1="224.3" y1="333.75" x2="221.48" y2="323.01"/><line class="cls-4" x1="239.35" y1="328.96" x2="235.44" y2="318.57"/><line class="cls-4" x1="253.83" y1="322.65" x2="248.88" y2="312.71"/><path class="cls-2" d="M270.81,319.49l6.36-4.09,0.57,0.89-1,5.89a9.52,9.52,0,0,0-.15,2,2.73,2.73,0,0,0,.42,1.28,2.07,2.07,0,0,0,1.26,1,1.91,1.91,0,0,0,1.54-.3,2.26,2.26,0,0,0,1.09-1.44,2.38,2.38,0,0,0-.43-1.78l1.23-.79a3.4,3.4,0,0,1,.53,2.72,3.8,3.8,0,0,1-1.78,2.31,3.66,3.66,0,0,1-2.6.67,2.88,2.88,0,0,1-2-1.39q-0.92-1.43-.37-4.59l0.79-4.49-4.86,3.11Z" transform="translate(0 0)"/><path class="cls-2" d="M272.9,325l2.62,5.16-5,3.2-0.73-1.14,3.93-2.52-1.41-2.83a3.72,3.72,0,0,1-1.35,1.46,3.19,3.19,0,0,1-2.67.48,4.09,4.09,0,0,1-2.3-1.87,3.94,3.94,0,0,1-.71-2.88,3.51,3.51,0,0,1,1.71-2.32,3.64,3.64,0,0,1,2.56-.64,3.38,3.38,0,0,1,2.2,1.38l-1.17.75a2.33,2.33,0,0,0-1.4-.87,2.19,2.19,0,0,0-1.54.39,2,2,0,0,0-1,1.45,2.91,2.91,0,0,0,.55,1.93,2.67,2.67,0,0,0,1.54,1.22,2.14,2.14,0,0,0,1.79-.32,2.42,2.42,0,0,0,1-1.17l0.16-.48Z" transform="translate(0 0)"/><line class="cls-4" x1="280.46" y1="305.74" x2="273.58" y2="297.03"/><line class="cls-4" x1="292.34" y1="295.33" x2="284.6" y2="287.37"/><line class="cls-4" x1="303.08" y1="283.75" x2="294.56" y2="276.63"/><line class="cls-4" x1="312.57" y1="271.13" x2="303.37" y2="264.92"/><path class="cls-2" d="M325.72,260l3.57-6.68,0.93,0.5,2,5.62a9.6,9.6,0,0,0,.87,1.85,2.74,2.74,0,0,0,1,.91,2.07,2.07,0,0,0,1.57.21,1.91,1.91,0,0,0,1.2-1,2.27,2.27,0,0,0,.25-1.79,2.38,2.38,0,0,0-1.24-1.35l0.69-1.29a3.4,3.4,0,0,1,1.79,2.12,3.81,3.81,0,0,1-.43,2.89,3.66,3.66,0,0,1-1.94,1.85,2.89,2.89,0,0,1-2.42-.23q-1.51-.81-2.56-3.83l-1.5-4.31-2.73,5.12Z" transform="translate(0 0)"/><path class="cls-2" d="M326.42,269.19a6.71,6.71,0,0,1-3-2.58,3.66,3.66,0,0,1,2.56-4.86,6.37,6.37,0,0,1,3.66.91l1.78,0.93a6.56,6.56,0,0,1,2.92,2.56,3.73,3.73,0,0,1-2.23,4.78l-0.32.1a6.34,6.34,0,0,1-3.68-.94Zm2.46-.35a5.37,5.37,0,0,0,2.64.82A1.8,1.8,0,0,0,333,268.6a1.78,1.78,0,0,0,0-1.85,5.25,5.25,0,0,0-2-1.7l-2.07-1.11a5.47,5.47,0,0,0-2.7-.82,1.8,1.8,0,0,0-1.56,1,1.77,1.77,0,0,0,0,1.82,5.26,5.26,0,0,0,2.08,1.73Z" transform="translate(0 0)"/><line class="cls-4" x1="327.43" y1="243.3" x2="317.15" y2="239.11"/><line class="cls-4" x1="332.64" y1="228.39" x2="321.98" y2="225.28"/><line class="cls-4" x1="336.28" y1="213.03" x2="325.37" y2="211.02"/><line class="cls-4" x1="338.33" y1="197.37" x2="327.27" y2="196.49"/><path class="cls-2" d="M344.15,178.36v-1.48l9.78-.2-1.14-2.94h1.33l1.66,4.17v0.23Z" transform="translate(0 0)"/><path class="cls-2" d="M350,182.23l5.77,0.47,0.12,5.92h-1.36L354.42,184l-3.16-.29a3.73,3.73,0,0,1,.54,1.92,3.18,3.18,0,0,1-1,2.53,4.09,4.09,0,0,1-2.8,1,4,4,0,0,1-2.83-.91,3.52,3.52,0,0,1-1.08-2.67,3.65,3.65,0,0,1,.8-2.52,3.39,3.39,0,0,1,2.33-1.15v1.39a2.33,2.33,0,0,0-1.48.74,2.2,2.2,0,0,0-.47,1.52,2,2,0,0,0,.73,1.59,2.9,2.9,0,0,0,1.94.54,2.67,2.67,0,0,0,1.85-.67,2.14,2.14,0,0,0,.67-1.69,2.42,2.42,0,0,0-.45-1.5l-0.33-.38Z" transform="translate(0 0)"/><line class="cls-4" x1="337.56" y1="165.83" x2="326.55" y2="167.24"/><line class="cls-4" x1="334.75" y1="150.29" x2="323.94" y2="152.82"/><line class="cls-4" x1="330.36" y1="135.12" x2="319.87" y2="138.75"/><line class="cls-4" x1="324.43" y1="120.48" x2="314.37" y2="125.17"/><path class="cls-2" d="M320.15,101l-0.73-1.27,8.41-5-2.44-2,1.15-.68,3.5,2.81,0.12,0.2Z" transform="translate(0 0)"/><path class="cls-2" d="M329.77,107.58a6.72,6.72,0,0,1-3.75,1.2,3.66,3.66,0,0,1-2.82-4.71,6.36,6.36,0,0,1,2.68-2.66l1.69-1a6.57,6.57,0,0,1,3.71-1.17,3.72,3.72,0,0,1,2.92,4.37q0,0.17-.08.34a6.33,6.33,0,0,1-2.7,2.66Zm1-2.29a5.38,5.38,0,0,0,2-1.8,1.81,1.81,0,0,0-.11-1.86,1.78,1.78,0,0,0-1.57-1,5.24,5.24,0,0,0-2.52.87l-2,1.2a5.47,5.47,0,0,0-2.1,1.88,1.8,1.8,0,0,0,.07,1.87,1.77,1.77,0,0,0,1.55,1,5.25,5.25,0,0,0,2.56-.88Z" transform="translate(0 0)"/><line class="cls-4" x1="308.23" y1="93.41" x2="299.34" y2="100.06"/><line class="cls-4" x1="298.13" y1="81.27" x2="289.97" y2="88.8"/><line class="cls-4" x1="286.84" y1="70.23" x2="279.49" y2="78.55"/><line class="cls-4" x1="274.47" y1="60.41" x2="268.02" y2="69.44"/><line class="cls-4" x1="247.04" y1="44.83" x2="242.58" y2="54.99"/><line class="cls-4" x1="232.27" y1="39.23" x2="228.88" y2="49.8"/><line class="cls-4" x1="217" y1="35.18" x2="214.71" y2="46.04"/><line class="cls-4" x1="201.4" y1="32.73" x2="200.24" y2="43.76"/></svg>